<svg width="143" height="187" viewBox="0 0 143 187" fill="none" xmlns="http://www.w3.org/2000/svg">
<g filter="url(#filter0_f_47_806)">
<circle cx="72" cy="70" r="50" fill="#FF5592" fill-opacity="0.3"/>
</g>
<path d="M22 70C22 76.5661 23.2933 83.0679 25.806 89.1342C28.3188 95.2005 32.0017 100.712 36.6447 105.355C41.2876 109.998 46.7996 113.681 52.8658 116.194C58.9321 118.707 65.4339 120 72 120C78.5661 120 85.0679 118.707 91.1342 116.194C97.2005 113.681 102.712 109.998 107.355 105.355C111.998 100.712 115.681 95.2004 118.194 89.1342C120.707 83.0679 122 76.5661 122 70L72 70L22 70Z" fill="url(#paint0_angular_47_806)"/>
<path d="M122 70C122 63.4339 120.707 56.9321 118.194 50.8658C115.681 44.7995 111.998 39.2876 107.355 34.6447C102.712 30.0017 97.2004 26.3188 91.1342 23.806C85.0679 21.2933 78.5661 20 72 20C65.4339 20 58.9321 21.2933 52.8658 23.806C46.7995 26.3188 41.2876 30.0017 36.6447 34.6447C32.0017 39.2876 28.3188 44.7996 25.806 50.8658C23.2933 56.9321 22 63.4339 22 70L72 70L122 70Z" fill="url(#paint1_angular_47_806)"/>
<path d="M72 20L79.0711 62.9289L122 70L79.0711 77.0711L72 120L64.9289 77.0711L22 70L64.9289 62.9289L72 20Z" fill="url(#paint2_angular_47_806)"/>
<path d="M72 120L64.9289 77.0711L22 70L64.9289 62.9289L72 20L79.0711 62.9289L122 70L79.0711 77.0711L72 120Z" fill="url(#paint3_angular_47_806)"/>
<g style="mix-blend-mode:soft-light">
<circle cx="72" cy="70" r="50" fill="black"/>
</g>
<path d="M16.632 162.78C16.632 164.604 15.948 166.032 14.58 167.064C13.212 168.096 11.196 168.612 8.532 168.612C7.524 168.612 6.588 168.54 5.724 168.396C4.86 168.252 4.116 168.036 3.492 167.748C2.892 167.436 2.412 167.052 2.052 166.596C1.716 166.14 1.548 165.6 1.548 164.976C1.548 164.4 1.668 163.92 1.908 163.536C2.148 163.128 2.436 162.792 2.772 162.528C3.468 162.912 4.26 163.26 5.148 163.572C6.06 163.86 7.104 164.004 8.28 164.004C9.024 164.004 9.588 163.896 9.972 163.68C10.38 163.464 10.584 163.176 10.584 162.816C10.584 162.48 10.44 162.216 10.152 162.024C9.864 161.832 9.384 161.676 8.712 161.556L7.632 161.34C5.544 160.932 3.984 160.296 2.952 159.432C1.944 158.544 1.44 157.284 1.44 155.652C1.44 154.764 1.632 153.96 2.016 153.24C2.4 152.52 2.94 151.92 3.636 151.44C4.332 150.96 5.16 150.588 6.12 150.324C7.104 150.06 8.184 149.928 9.36 149.928C10.248 149.928 11.076 150 11.844 150.144C12.636 150.264 13.32 150.456 13.896 150.72C14.472 150.984 14.928 151.332 15.264 151.764C15.6 152.172 15.768 152.664 15.768 153.24C15.768 153.792 15.66 154.272 15.444 154.68C15.252 155.064 15 155.388 14.688 155.652C14.496 155.532 14.208 155.412 13.824 155.292C13.44 155.148 13.02 155.028 12.564 154.932C12.108 154.812 11.64 154.716 11.16 154.644C10.704 154.572 10.284 154.536 9.9 154.536C9.108 154.536 8.496 154.632 8.064 154.824C7.632 154.992 7.416 155.268 7.416 155.652C7.416 155.916 7.536 156.132 7.776 156.3C8.016 156.468 8.472 156.624 9.144 156.768L10.26 157.02C12.564 157.548 14.196 158.28 15.156 159.216C16.14 160.128 16.632 161.316 16.632 162.78ZM25.7108 161.988C25.7108 162.612 25.9028 163.056 26.2868 163.32C26.6948 163.584 27.2588 163.716 27.9788 163.716C28.3388 163.716 28.7108 163.692 29.0948 163.644C29.4788 163.572 29.8148 163.488 30.1028 163.392C30.3188 163.656 30.4988 163.956 30.6428 164.292C30.8108 164.604 30.8948 164.988 30.8948 165.444C30.8948 166.356 30.5468 167.1 29.8508 167.676C29.1788 168.252 27.9788 168.54 26.2508 168.54C24.1388 168.54 22.5068 168.06 21.3548 167.1C20.2268 166.14 19.6628 164.58 19.6628 162.42V147.012C19.9268 146.94 20.2988 146.868 20.7788 146.796C21.2828 146.7 21.8108 146.652 22.3628 146.652C23.4188 146.652 24.2348 146.844 24.8108 147.228C25.4108 147.588 25.7108 148.368 25.7108 149.568V151.872H30.4268C30.5708 152.136 30.7028 152.472 30.8228 152.88C30.9668 153.264 31.0388 153.696 31.0388 154.176C31.0388 155.016 30.8468 155.628 30.4628 156.012C30.1028 156.372 29.6108 156.552 28.9868 156.552H25.7108V161.988ZM41.4928 164.112C41.9008 164.112 42.3448 164.076 42.8248 164.004C43.3288 163.908 43.7008 163.788 43.9408 163.644V160.764L41.3488 160.98C40.6768 161.028 40.1248 161.172 39.6928 161.412C39.2608 161.652 39.0448 162.012 39.0448 162.492C39.0448 162.972 39.2248 163.368 39.5848 163.68C39.9688 163.968 40.6048 164.112 41.4928 164.112ZM41.2048 149.964C42.5008 149.964 43.6768 150.096 44.7328 150.36C45.8128 150.624 46.7248 151.032 47.4688 151.584C48.2368 152.112 48.8248 152.796 49.2328 153.636C49.6408 154.452 49.8448 155.424 49.8448 156.552V164.616C49.8448 165.24 49.6648 165.756 49.3048 166.164C48.9688 166.548 48.5608 166.884 48.0808 167.172C46.5208 168.108 44.3248 168.576 41.4928 168.576C40.2208 168.576 39.0688 168.456 38.0368 168.216C37.0288 167.976 36.1528 167.616 35.4088 167.136C34.6888 166.656 34.1248 166.044 33.7168 165.3C33.3328 164.556 33.1408 163.692 33.1408 162.708C33.1408 161.052 33.6328 159.78 34.6168 158.892C35.6008 158.004 37.1248 157.452 39.1888 157.236L43.9048 156.732V156.48C43.9048 155.784 43.5928 155.292 42.9688 155.004C42.3688 154.692 41.4928 154.536 40.3408 154.536C39.4288 154.536 38.5408 154.632 37.6768 154.824C36.8128 155.016 36.0328 155.256 35.3368 155.544C35.0248 155.328 34.7608 155.004 34.5448 154.572C34.3288 154.116 34.2208 153.648 34.2208 153.168C34.2208 152.544 34.3648 152.052 34.6528 151.692C34.9648 151.308 35.4328 150.984 36.0568 150.72C36.7528 150.456 37.5688 150.264 38.5048 150.144C39.4648 150.024 40.3648 149.964 41.2048 149.964ZM59.7068 167.964C59.4668 168.036 59.0828 168.108 58.5548 168.18C58.0508 168.252 57.5228 168.288 56.9708 168.288C56.4428 168.288 55.9628 168.252 55.5308 168.18C55.1228 168.108 54.7748 167.964 54.4868 167.748C54.1988 167.532 53.9708 167.244 53.8028 166.884C53.6588 166.5 53.5868 166.008 53.5868 165.408V154.608C53.5868 154.056 53.6828 153.588 53.8748 153.204C54.0908 152.796 54.3908 152.436 54.7748 152.124C55.1588 151.812 55.6268 151.536 56.1788 151.296C56.7548 151.032 57.3668 150.804 58.0148 150.612C58.6628 150.42 59.3348 150.276 60.0308 150.18C60.7268 150.06 61.4228 150 62.1188 150C63.2708 150 64.1828 150.228 64.8548 150.684C65.5268 151.116 65.8628 151.836 65.8628 152.844C65.8628 153.18 65.8148 153.516 65.7188 153.852C65.6228 154.164 65.5028 154.452 65.3588 154.716C64.8548 154.716 64.3388 154.74 63.8108 154.788C63.2828 154.836 62.7668 154.908 62.2628 155.004C61.7588 155.1 61.2788 155.208 60.8228 155.328C60.3908 155.424 60.0188 155.544 59.7068 155.688V167.964ZM76.0641 149.964C77.5041 149.964 78.8361 150.156 80.0601 150.54C81.3081 150.9 82.3761 151.464 83.2641 152.232C84.1521 153 84.8481 153.972 85.3521 155.148C85.8561 156.3 86.1081 157.68 86.1081 159.288C86.1081 160.824 85.8921 162.168 85.4601 163.32C85.0281 164.472 84.4161 165.444 83.6241 166.236C82.8321 167.004 81.8721 167.58 80.7441 167.964C79.6401 168.348 78.4041 168.54 77.0361 168.54C76.0041 168.54 75.0441 168.384 74.1561 168.072V174.048C73.9161 174.12 73.5321 174.192 73.0041 174.264C72.4761 174.36 71.9361 174.408 71.3841 174.408C70.8561 174.408 70.3761 174.372 69.9441 174.3C69.5361 174.228 69.1881 174.084 68.9001 173.868C68.6121 173.652 68.3961 173.352 68.2521 172.968C68.1081 172.608 68.0361 172.128 68.0361 171.528V154.248C68.0361 153.6 68.1681 153.072 68.4321 152.664C68.7201 152.256 69.1041 151.884 69.5841 151.548C70.3281 151.068 71.2521 150.684 72.3561 150.396C73.4601 150.108 74.6961 149.964 76.0641 149.964ZM76.1361 163.716C78.6081 163.716 79.8441 162.24 79.8441 159.288C79.8441 157.752 79.5321 156.612 78.9081 155.868C78.3081 155.124 77.4321 154.752 76.2801 154.752C75.8241 154.752 75.4161 154.812 75.0561 154.932C74.6961 155.028 74.3841 155.148 74.1201 155.292V163.212C74.4081 163.356 74.7201 163.476 75.0561 163.572C75.3921 163.668 75.7521 163.716 76.1361 163.716ZM96.653 164.112C97.061 164.112 97.505 164.076 97.985 164.004C98.489 163.908 98.861 163.788 99.101 163.644V160.764L96.509 160.98C95.837 161.028 95.285 161.172 94.853 161.412C94.421 161.652 94.205 162.012 94.205 162.492C94.205 162.972 94.385 163.368 94.745 163.68C95.129 163.968 95.765 164.112 96.653 164.112ZM96.365 149.964C97.661 149.964 98.837 150.096 99.893 150.36C100.973 150.624 101.885 151.032 102.629 151.584C103.397 152.112 103.985 152.796 104.393 153.636C104.801 154.452 105.005 155.424 105.005 156.552V164.616C105.005 165.24 104.825 165.756 104.465 166.164C104.129 166.548 103.721 166.884 103.241 167.172C101.681 168.108 99.485 168.576 96.653 168.576C95.381 168.576 94.229 168.456 93.197 168.216C92.189 167.976 91.313 167.616 90.569 167.136C89.849 166.656 89.285 166.044 88.877 165.3C88.493 164.556 88.301 163.692 88.301 162.708C88.301 161.052 88.793 159.78 89.777 158.892C90.761 158.004 92.285 157.452 94.349 157.236L99.065 156.732V156.48C99.065 155.784 98.753 155.292 98.129 155.004C97.529 154.692 96.653 154.536 95.501 154.536C94.589 154.536 93.701 154.632 92.837 154.824C91.973 155.016 91.193 155.256 90.497 155.544C90.185 155.328 89.921 155.004 89.705 154.572C89.489 154.116 89.381 153.648 89.381 153.168C89.381 152.544 89.525 152.052 89.813 151.692C90.125 151.308 90.593 150.984 91.217 150.72C91.913 150.456 92.729 150.264 93.665 150.144C94.625 150.024 95.525 149.964 96.365 149.964ZM114.867 161.988C114.867 162.612 115.059 163.056 115.443 163.32C115.851 163.584 116.415 163.716 117.135 163.716C117.495 163.716 117.867 163.692 118.251 163.644C118.635 163.572 118.971 163.488 119.259 163.392C119.475 163.656 119.655 163.956 119.799 164.292C119.967 164.604 120.051 164.988 120.051 165.444C120.051 166.356 119.703 167.1 119.007 167.676C118.335 168.252 117.135 168.54 115.407 168.54C113.295 168.54 111.663 168.06 110.511 167.1C109.383 166.14 108.819 164.58 108.819 162.42V147.012C109.083 146.94 109.455 146.868 109.935 146.796C110.439 146.7 110.967 146.652 111.519 146.652C112.575 146.652 113.391 146.844 113.967 147.228C114.567 147.588 114.867 148.368 114.867 149.568V151.872H119.583C119.727 152.136 119.859 152.472 119.979 152.88C120.123 153.264 120.195 153.696 120.195 154.176C120.195 155.016 120.003 155.628 119.619 156.012C119.259 156.372 118.767 156.552 118.143 156.552H114.867V161.988ZM140.441 167.964C140.201 168.036 139.817 168.108 139.289 168.18C138.785 168.252 138.257 168.288 137.705 168.288C137.177 168.288 136.697 168.252 136.265 168.18C135.857 168.108 135.509 167.964 135.221 167.748C134.933 167.532 134.705 167.244 134.537 166.884C134.393 166.5 134.321 166.008 134.321 165.408V157.416C134.321 156.432 134.069 155.748 133.565 155.364C133.085 154.956 132.485 154.752 131.765 154.752C131.285 154.752 130.829 154.812 130.397 154.932C129.965 155.052 129.617 155.196 129.353 155.364V167.964C129.113 168.036 128.729 168.108 128.201 168.18C127.697 168.252 127.169 168.288 126.617 168.288C126.089 168.288 125.609 168.252 125.177 168.18C124.769 168.108 124.421 167.964 124.133 167.748C123.845 167.532 123.617 167.244 123.449 166.884C123.305 166.5 123.233 166.008 123.233 165.408V144.528C123.497 144.48 123.881 144.42 124.385 144.348C124.913 144.252 125.441 144.204 125.969 144.204C126.497 144.204 126.965 144.24 127.373 144.312C127.805 144.384 128.165 144.528 128.453 144.744C128.741 144.96 128.957 145.26 129.101 145.644C129.269 146.004 129.353 146.484 129.353 147.084V150.612C129.665 150.492 130.133 150.36 130.757 150.216C131.405 150.048 132.113 149.964 132.881 149.964C135.257 149.964 137.105 150.564 138.425 151.764C139.769 152.94 140.441 154.704 140.441 157.056V167.964Z" fill="#231052"/>
<defs>
<filter id="filter0_f_47_806" x="2" y="0" width="140" height="140" filterUnits="userSpaceOnUse" color-interpolation-filters="sRGB">
<feFlood flood-opacity="0" result="BackgroundImageFix"/>
<feBlend mode="normal" in="SourceGraphic" in2="BackgroundImageFix" result="shape"/>
<feGaussianBlur stdDeviation="10" result="effect1_foregroundBlur_47_806"/>
</filter>
<radialGradient id="paint0_angular_47_806" cx="0" cy="0" r="1" gradientUnits="userSpaceOnUse" gradientTransform="translate(72 70) rotate(-180) scale(50)">
<stop offset="0.333333" stop-color="#4200FF"/>
<stop offset="0.703125" stop-color="#EB89A7"/>
<stop offset="1" stop-color="#B0FFD9"/>
</radialGradient>
<radialGradient id="paint1_angular_47_806" cx="0" cy="0" r="1" gradientUnits="userSpaceOnUse" gradientTransform="translate(72 70) scale(50)">
<stop offset="0.333333" stop-color="#4200FF"/>
<stop offset="0.703125" stop-color="#EB89A7"/>
<stop offset="1" stop-color="#B0FFD9"/>
</radialGradient>
<radialGradient id="paint2_angular_47_806" cx="0" cy="0" r="1" gradientUnits="userSpaceOnUse" gradientTransform="translate(72 70) rotate(-90) scale(50)">
<stop stop-color="white"/>
<stop offset="1" stop-color="white" stop-opacity="0"/>
</radialGradient>
<radialGradient id="paint3_angular_47_806" cx="0" cy="0" r="1" gradientUnits="userSpaceOnUse" gradientTransform="translate(72 70) rotate(90) scale(50)">
<stop stop-color="white"/>
<stop offset="1" stop-color="white" stop-opacity="0"/>
</radialGradient>
</defs>
</svg>
